:SAMPLES-PER-SECOND 30
:FULLY-SPECIFIED
:DEGREES
249
root  38.529 32.5578 -65.0929 5.30824 -43.7834 3.14811
RightUpLeg  -22.0243 -9.77034 -1.25111
RightLeg  36.9019 -6.33038 -4.14531
RightFoot  -9.39137 0.0679601 1.205
RightToes  -26.2701 -0.119098 -0.225225
Spine  5.12511 -2.45235 0.52134
Spine1  9.81654 -5.20711 1.11322
HEad  18.5659 5.54095 5.29983
LeftShoulder1  0 -2.42657e-020 -4.95415e-022
LeftArm  -3.21999 10.473 -86.0099
LeftForeArm  52.7844 -38.8742 -8.14055
LeftHand  -0.345868 -11.7351 2.99636
RightShoulder  0 2.42657e-020 1.07489e-018
RightArm  -58.8142 -14.6969 83.4279
RightForeArm  61.575 9.32021 1.61112
RightHand  -1.78047 19.403 -10.0201
LeftUpLeg  -18.3276 -5.36853 1.73982
LeftLeg  32.8301 3.63633 2.02164
LeftFoot  -8.52497 -0.0537883 -0.72168
LeftToes  -14.2738 8.72033e-007 1.17809e-007
250
root  38.3565 32.6073 -65.2727 5.95059 -43.052 3.66625
RightUpLeg  -22.9818 -11.1514 -0.896826
RightLeg  36.8586 -6.14889 -4.02121
RightFoot  -9.57325 0.0671731 1.17981
RightToes  -25.0711 -0.111494 -0.216292
Spine  5.44944 -2.79196 0.872235
Spine1  10.4102 -6.03436 1.99544
HEad  15.6064 11.0375 3.09556
LeftShoulder1  0 -2.42657e-020 -4.95415e-022
LeftArm  -6.55794 7.02456 -88.3838
LeftForeArm  53.8286 -31.5831 -6.18429
LeftHand  -0.0710559 -11.6272 0.328123
RightShoulder  0 2.42657e-020 1.07489e-018
RightArm  -59.6471 -15.7372 81.9674
RightForeArm  60.2604 9.96017 1.72964
RightHand  -1.48878 19.1132 -8.45873
LeftUpLeg  -20.3625 -5.73338 1.87702
LeftLeg  34.3066 3.51442 2.0739
LeftFoot  -7.08196 -0.038565 -0.62322
LeftToes  -16.0942 8.72033e-007 1.17809e-007
251
root  38.1799 32.718 -65.3838 6.5215 -42.8268 4.20541
RightUpLeg  -23.5738 -11.8633 -0.675024
RightLeg  36.2405 -6.04952 -3.8642
RightFoot  -9.35693 0.0600242 1.11109
RightToes  -24.2924 -0.109912 -0.214441
Spine  5.83248 -2.79829 1.1074
Spine1  10.9971 -6.22264 2.75251
HEad  13.2654 16.1256 0.679914
LeftShoulder1  0 -2.42657e-020 -4.95415e-022
LeftArm  -9.9119 4.91845 -90.0511
LeftForeArm  53.4945 -28.0522 -5.35221
LeftHand  0.24776 -12.1461 -2.69988
RightShoulder  0 2.42657e-020 1.07489e-018
RightArm  -58.6022 -16.7189 80.995
RightForeArm  55.9423 11.7694 2.06827
RightHand  -1.22655 18.9046 -6.98974
LeftUpLeg  -21.7077 -5.19204 1.53228
LeftLeg  34.9345 4.29021 2.59497
LeftFoot  -5.80484 -0.0326843 -0.644661
LeftToes  -15.5123 8.72033e-007 1.17809e-007
252
root  37.9779 32.9258 -65.437 6.91855 -42.9606 4.81847
RightUpLeg  -23.6061 -11.7172 -0.642544
RightLeg  34.905 -6.32891 -3.83549
RightFoot  -8.43209 0.0478377 1.02656
RightToes  -24.1126 -0.110772 -0.215465
Spine  6.02126 -2.52813 1.23681
Spine1  11.304 -5.71725 3.10416
HEad  12.1848 20.5342 -1.72389
LeftShoulder1  0 -2.42657e-020 -4.95415e-022
LeftArm  -12.1713 4.36624 -90.9372
LeftForeArm  52.72 -27.6966 -5.27313
LeftHand  0.368399 -12.0844 -3.8515
RightShoulder  0 2.42657e-020 1.07489e-018
RightArm  -53.2956 -18.4417 80.5312
RightForeArm  44.8702 15.6158 2.80454
RightHand  -0.872359 18.7385 -4.9151
LeftUpLeg  -21.9579 -3.26722 0.658601
LeftLeg  33.9467 5.35424 3.11245
LeftFoot  -4.82983 -0.0274477 -0.650834
LeftToes  -12.2186 8.72033e-007 1.17809e-007
253
root  37.7661 33.2007 -65.4257 7.1192 -42.9066 5.52337
RightUpLeg  -23.0819 -11.6617 -0.806234
RightLeg  32.932 -6.70938 -3.7535
RightFoot  -7.05923 0.031973 0.89599
RightToes  -24.4591 -0.113096 -0.218205
Spine  6.0057 -2.23812 1.27243
Spine1  11.3449 -5.0313 3.02933
HEad  12.3099 24.4011 -3.80413
LeftShoulder1  0 -2.42657e-020 -4.95415e-022
LeftArm  -12.9321 4.80967 -91.1403
LeftForeArm  51.9827 -28.2347 -5.39678
LeftHand  0.299464 -12.0269 -3.21401
RightShoulder  0 2.42657e-020 1.07489e-018
RightArm  -46.2983 -20.4352 80.1616
RightForeArm  33.881 21.3765 3.94804
RightHand  -0.496213 18.1943 -2.72916
LeftUpLeg  -21.1016 -0.618872 -0.530862
LeftLeg  30.5355 3.02644 1.52746
LeftFoot  -3.31904 -0.00853461 -0.294587
LeftToes  -13.5462 8.72033e-007 1.17809e-007
